<svg xmlns="http://www.w3.org/2000/svg" xmlns:xlink="http://www.w3.org/1999/xlink" width="500" zoomAndPan="magnify" viewBox="0 0 375 374.999991" height="500" preserveAspectRatio="xMidYMid meet" version="1.0"><defs><g/><clipPath id="01db342367"><path d="M 190 93.898438 L 207 93.898438 L 207 138 L 190 138 Z M 190 93.898438 " clip-rule="nonzero"/></clipPath><clipPath id="25c0631146"><path d="M 168 93.898438 L 185 93.898438 L 185 138 L 168 138 Z M 168 93.898438 " clip-rule="nonzero"/></clipPath><clipPath id="defe04121f"><path d="M 128.109375 131 L 175 131 L 175 150 L 128.109375 150 Z M 128.109375 131 " clip-rule="nonzero"/></clipPath><clipPath id="f144e5d090"><path d="M 128.109375 153 L 175 153 L 175 171 L 128.109375 171 Z M 128.109375 153 " clip-rule="nonzero"/></clipPath><clipPath id="a00550af50"><path d="M 190 165 L 207 165 L 207 208.648438 L 190 208.648438 Z M 190 165 " clip-rule="nonzero"/></clipPath><clipPath id="4605a39d74"><path d="M 168 165 L 185 165 L 185 208.648438 L 168 208.648438 Z M 168 165 " clip-rule="nonzero"/></clipPath><clipPath id="5a1b5ec79c"><path d="M 200 153 L 246.609375 153 L 246.609375 171 L 200 171 Z M 200 153 " clip-rule="nonzero"/></clipPath><clipPath id="6a4561eba6"><path d="M 200 131 L 246.609375 131 L 246.609375 150 L 200 150 Z M 200 131 " clip-rule="nonzero"/></clipPath></defs><g clip-path="url(#01db342367)"><path fill="#584910" d="M 192.632812 134.574219 L 192.632812 126.328125 L 199.570312 122.609375 C 201.863281 121.378906 203.679688 119.640625 204.921875 117.566406 C 206.167969 115.492188 206.839844 112.785156 206.839844 110.179688 L 206.839844 93.898438 L 204.972656 94.976562 L 197.066406 99.5 C 194.875 100.742188 193.140625 102.480469 191.960938 104.515625 C 190.78125 106.5625 190.144531 110.527344 190.144531 113.054688 L 190.144531 120.675781 L 191.324219 120.042969 C 192.15625 119.601562 192.648438 118.785156 192.648438 117.839844 L 192.648438 113.054688 C 192.648438 110.96875 193.164062 109.039062 194.125 107.378906 C 195.085938 105.71875 196.511719 104.308594 198.324219 103.269531 L 204.363281 99.808594 L 204.363281 110.179688 C 204.363281 112.316406 203.820312 114.3125 202.808594 116 C 201.796875 117.695312 200.308594 119.109375 198.429688 120.121094 L 191.480469 123.839844 C 190.652344 124.28125 190.160156 125.097656 190.160156 126.042969 L 190.160156 137.398438 L 191.339844 136.761719 C 192.15625 136.335938 192.632812 135.519531 192.632812 134.574219 Z M 192.632812 134.574219 " fill-opacity="1" fill-rule="nonzero"/></g><g clip-path="url(#25c0631146)"><path fill="#584910" d="M 175.421875 122.621094 L 182.355469 126.34375 L 182.355469 134.585938 C 182.355469 135.53125 182.835938 136.347656 183.679688 136.789062 L 184.859375 137.425781 L 184.859375 126.070312 C 184.859375 125.125 184.363281 124.308594 183.535156 123.867188 L 176.589844 120.144531 C 174.707031 119.136719 173.21875 117.722656 172.207031 116.023438 C 171.195312 114.339844 170.652344 112.34375 170.652344 110.203125 L 170.652344 99.835938 L 176.691406 103.296875 C 178.492188 104.332031 179.917969 105.746094 180.890625 107.40625 C 181.851562 109.0625 182.367188 110.996094 182.367188 113.082031 L 182.367188 117.863281 C 182.367188 118.8125 182.863281 119.628906 183.691406 120.070312 L 184.871094 120.703125 L 184.871094 113.082031 C 184.871094 110.554688 184.234375 106.589844 183.054688 104.539062 C 181.863281 102.492188 180.140625 100.769531 177.949219 99.523438 L 170.042969 95 L 168.175781 93.925781 L 168.175781 110.203125 C 168.175781 112.796875 168.851562 115.507812 170.09375 117.59375 C 171.3125 119.652344 173.128906 121.390625 175.421875 122.621094 Z M 175.421875 122.621094 " fill-opacity="1" fill-rule="nonzero"/></g><path fill="#584910" d="M 155.71875 129.894531 L 159.386719 132.007812 L 162.332031 133.703125 L 162.371094 132.367188 C 162.394531 131.421875 161.941406 130.59375 161.125 130.113281 L 160.644531 129.839844 L 156.976562 127.730469 C 155.175781 126.691406 153.75 125.265625 152.789062 123.605469 C 151.832031 121.949219 151.324219 120.003906 151.339844 117.917969 L 151.363281 110.957031 L 160.347656 116.140625 C 162.199219 117.21875 163.652344 118.679688 164.613281 120.40625 C 165.570312 122.128906 166.0625 124.125 165.984375 126.265625 L 165.738281 134.144531 C 165.714844 135.089844 166.167969 135.921875 166.984375 136.386719 L 176.820312 142.0625 L 176.859375 140.714844 C 176.886719 139.769531 176.433594 138.941406 175.617188 138.472656 L 168.472656 134.351562 L 168.71875 126.484375 C 168.8125 123.890625 168.214844 121.441406 167.035156 119.328125 C 165.855469 117.21875 163.847656 115.273438 161.605469 113.976562 L 150.742188 107.714844 L 147.488281 105.835938 L 147.476562 107.988281 L 147.4375 117.101562 C 147.425781 119.628906 148.058594 121.988281 149.226562 124.035156 C 150.417969 126.09375 153.53125 128.625 155.71875 129.894531 Z M 155.71875 129.894531 " fill-opacity="1" fill-rule="nonzero"/><g clip-path="url(#defe04121f)"><path fill="#584910" d="M 142.238281 147.496094 C 144.480469 148.792969 147.164062 149.554688 149.589844 149.53125 C 152.011719 149.492188 154.425781 148.792969 156.640625 147.417969 L 163.328125 143.269531 L 170.46875 147.390625 C 171.285156 147.859375 172.234375 147.84375 173.035156 147.351562 L 174.175781 146.640625 L 164.339844 140.960938 C 163.523438 140.496094 162.578125 140.507812 161.773438 141 L 155.070312 145.164062 C 153.257812 146.289062 151.289062 146.871094 149.316406 146.898438 C 147.347656 146.925781 145.351562 146.40625 143.496094 145.34375 L 134.515625 140.160156 L 140.527344 136.660156 C 142.332031 135.609375 144.261719 135.078125 146.179688 135.078125 C 148.097656 135.078125 150.03125 135.597656 151.832031 136.632812 L 155.5 138.746094 L 155.980469 139.019531 C 156.796875 139.496094 157.742188 139.472656 158.546875 138.980469 L 159.6875 138.28125 L 156.742188 136.582031 L 153.074219 134.46875 C 150.886719 133.210938 147.140625 131.773438 144.765625 131.773438 C 142.410156 131.785156 140.050781 132.421875 137.859375 133.691406 L 129.976562 138.28125 L 128.113281 139.367188 L 131.367188 141.246094 Z M 142.238281 147.496094 " fill-opacity="1" fill-rule="nonzero"/></g><path fill="#584910" d="M 168.460938 168.207031 L 175.601562 164.085938 C 176.417969 163.621094 176.886719 162.789062 176.847656 161.84375 L 176.808594 160.496094 L 166.984375 166.171875 C 166.167969 166.652344 165.699219 167.480469 165.726562 168.414062 L 165.972656 176.296875 C 166.039062 178.421875 165.558594 180.429688 164.597656 182.15625 C 163.640625 183.878906 162.1875 185.34375 160.335938 186.417969 L 151.351562 191.601562 L 151.324219 184.644531 C 151.3125 182.554688 151.832031 180.625 152.777344 178.953125 C 153.738281 177.292969 155.148438 175.882812 156.964844 174.832031 L 160.632812 172.71875 L 161.113281 172.445312 C 161.929688 171.964844 162.394531 171.148438 162.355469 170.191406 L 162.316406 168.855469 L 159.375 170.554688 L 155.707031 172.667969 C 153.515625 173.921875 150.40625 176.464844 149.226562 178.511719 C 148.046875 180.558594 147.425781 182.917969 147.4375 185.445312 L 147.476562 194.558594 L 147.488281 196.710938 L 150.742188 194.832031 L 161.589844 188.570312 C 163.832031 187.273438 165.84375 185.328125 167.023438 183.21875 C 168.203125 181.105469 168.796875 178.65625 168.707031 176.0625 Z M 168.460938 168.207031 " fill-opacity="1" fill-rule="nonzero"/><g clip-path="url(#f144e5d090)"><path fill="#584910" d="M 156.742188 165.992188 L 159.6875 164.292969 L 158.546875 163.59375 C 157.742188 163.101562 156.796875 163.074219 155.980469 163.554688 L 155.5 163.828125 L 151.832031 165.941406 C 150.03125 166.976562 148.085938 167.507812 146.179688 167.496094 C 144.261719 167.496094 142.332031 166.964844 140.527344 165.914062 L 134.515625 162.414062 L 143.496094 157.230469 C 145.351562 156.152344 147.347656 155.636719 149.316406 155.675781 C 151.289062 155.699219 153.269531 156.28125 155.070312 157.410156 L 161.773438 161.570312 C 162.578125 162.078125 163.523438 162.078125 164.339844 161.609375 L 174.175781 155.933594 L 173.035156 155.21875 C 172.234375 154.726562 171.285156 154.714844 170.46875 155.179688 L 163.328125 159.304688 L 156.640625 155.15625 C 154.4375 153.78125 152.011719 153.082031 149.589844 153.042969 C 147.164062 153.003906 144.480469 153.769531 142.238281 155.078125 L 131.390625 161.339844 L 128.136719 163.21875 L 130.003906 164.304688 L 137.886719 168.894531 C 140.0625 170.164062 142.421875 170.800781 144.792969 170.8125 C 147.152344 170.8125 150.910156 169.386719 153.101562 168.117188 Z M 156.742188 165.992188 " fill-opacity="1" fill-rule="nonzero"/></g><g clip-path="url(#a00550af50)"><path fill="#584910" d="M 199.582031 179.9375 L 192.648438 176.21875 L 192.648438 167.988281 C 192.648438 167.042969 192.15625 166.226562 191.324219 165.785156 L 190.144531 165.148438 L 190.144531 176.503906 C 190.144531 177.449219 190.636719 178.265625 191.46875 178.707031 L 198.414062 182.425781 C 200.292969 183.4375 201.785156 184.851562 202.796875 186.546875 C 203.808594 188.234375 204.351562 190.230469 204.351562 192.367188 L 204.351562 202.738281 L 198.3125 199.277344 C 196.511719 198.238281 195.085938 196.839844 194.113281 195.179688 C 193.152344 193.523438 192.632812 191.589844 192.632812 189.503906 L 192.632812 184.722656 C 192.632812 183.773438 192.140625 182.957031 191.3125 182.515625 L 190.132812 181.882812 L 190.132812 189.503906 C 190.132812 192.03125 190.769531 195.996094 191.949219 198.046875 C 193.128906 200.09375 194.863281 201.816406 197.054688 203.0625 L 204.960938 207.585938 L 206.828125 208.660156 L 206.828125 192.382812 C 206.828125 189.789062 206.152344 187.078125 204.910156 184.992188 C 203.691406 182.90625 201.863281 181.167969 199.582031 179.9375 Z M 199.582031 179.9375 " fill-opacity="1" fill-rule="nonzero"/></g><g clip-path="url(#4605a39d74)"><path fill="#584910" d="M 182.355469 167.988281 L 182.355469 176.230469 L 175.421875 179.949219 C 173.128906 181.167969 171.3125 182.917969 170.070312 184.992188 C 168.824219 187.078125 168.148438 189.789062 168.148438 192.382812 L 168.148438 208.660156 L 170.015625 207.585938 L 177.9375 203.0625 C 180.125 201.816406 181.863281 200.082031 183.042969 198.046875 C 184.222656 195.996094 184.859375 192.03125 184.859375 189.503906 L 184.859375 181.882812 L 183.679688 182.515625 C 182.847656 182.957031 182.355469 183.773438 182.355469 184.722656 L 182.355469 189.503906 C 182.355469 191.589844 181.835938 193.523438 180.878906 195.179688 C 179.917969 196.839844 178.492188 198.253906 176.679688 199.277344 L 170.640625 202.738281 L 170.640625 192.367188 C 170.640625 190.230469 171.183594 188.234375 172.195312 186.546875 C 173.207031 184.851562 174.695312 183.4375 176.574219 182.425781 L 183.523438 178.707031 C 184.351562 178.265625 184.84375 177.449219 184.84375 176.503906 L 184.84375 165.148438 L 183.664062 165.785156 C 182.847656 166.226562 182.355469 167.042969 182.355469 167.988281 Z M 182.355469 167.988281 " fill-opacity="1" fill-rule="nonzero"/></g><g clip-path="url(#5a1b5ec79c)"><path fill="#584910" d="M 243.597656 161.324219 L 232.75 155.066406 C 230.507812 153.769531 227.824219 152.992188 225.402344 153.03125 C 222.976562 153.070312 220.566406 153.769531 218.351562 155.140625 L 211.664062 159.289062 L 204.519531 155.167969 C 203.703125 154.703125 202.757812 154.703125 201.953125 155.207031 L 200.8125 155.921875 L 210.652344 161.597656 C 211.46875 162.0625 212.414062 162.050781 213.21875 161.558594 L 219.917969 157.398438 C 221.734375 156.269531 223.703125 155.6875 225.671875 155.660156 C 227.644531 155.636719 229.640625 156.152344 231.492188 157.214844 L 240.476562 162.402344 L 234.460938 165.902344 C 232.660156 166.949219 230.730469 167.480469 228.808594 167.480469 C 226.890625 167.480469 224.960938 166.964844 223.160156 165.925781 L 219.492188 163.8125 L 219.011719 163.542969 C 218.195312 163.0625 217.25 163.089844 216.445312 163.582031 L 215.304688 164.28125 L 218.246094 165.976562 L 221.914062 168.089844 C 224.105469 169.347656 227.851562 170.789062 230.222656 170.789062 C 232.582031 170.773438 234.941406 170.140625 237.132812 168.867188 L 245.011719 164.28125 L 246.878906 163.191406 Z M 243.597656 161.324219 " fill-opacity="1" fill-rule="nonzero"/></g><path fill="#584910" d="M 219.269531 172.667969 L 215.601562 170.554688 L 212.660156 168.855469 L 212.632812 170.191406 C 212.609375 171.136719 213.0625 171.964844 213.878906 172.445312 L 214.359375 172.71875 L 218.027344 174.832031 C 219.828125 175.867188 221.253906 177.292969 222.199219 178.953125 C 223.160156 180.613281 223.664062 182.554688 223.652344 184.628906 L 223.625 191.589844 L 214.644531 186.40625 C 212.789062 185.328125 211.339844 183.867188 210.378906 182.140625 C 209.417969 180.417969 208.925781 178.421875 209.003906 176.28125 L 209.25 168.402344 C 209.277344 167.457031 208.824219 166.625 207.992188 166.160156 L 198.15625 160.484375 L 198.117188 161.832031 C 198.089844 162.777344 198.546875 163.605469 199.363281 164.074219 L 206.503906 168.195312 L 206.246094 176.0625 C 206.152344 178.65625 206.75 181.105469 207.929688 183.21875 C 209.109375 185.328125 211.117188 187.273438 213.359375 188.570312 L 224.207031 194.832031 L 227.460938 196.710938 L 227.476562 194.558594 L 227.515625 185.445312 C 227.527344 182.917969 226.890625 180.558594 225.726562 178.511719 C 224.585938 176.464844 221.460938 173.9375 219.269531 172.667969 Z M 219.269531 172.667969 " fill-opacity="1" fill-rule="nonzero"/><path fill="#584910" d="M 206.53125 134.351562 L 199.386719 138.472656 C 198.570312 138.941406 198.105469 139.769531 198.144531 140.714844 L 198.183594 142.0625 L 208.019531 136.386719 C 208.835938 135.90625 209.304688 135.078125 209.277344 134.144531 L 209.03125 126.265625 C 208.964844 124.125 209.445312 122.128906 210.40625 120.40625 C 211.363281 118.679688 212.804688 117.21875 214.667969 116.140625 L 223.652344 110.957031 L 223.675781 117.917969 C 223.691406 120.003906 223.171875 121.933594 222.226562 123.605469 C 221.265625 125.265625 219.855469 126.679688 218.039062 127.730469 L 214.371094 129.839844 L 213.890625 130.113281 C 213.074219 130.59375 212.609375 131.410156 212.648438 132.355469 L 212.6875 133.691406 L 215.628906 131.992188 L 219.296875 129.878906 C 221.488281 128.625 224.597656 126.082031 225.777344 124.035156 C 226.957031 121.988281 227.578125 119.628906 227.566406 117.101562 L 227.527344 107.988281 L 227.515625 105.835938 L 224.261719 107.714844 L 213.410156 113.976562 C 211.167969 115.273438 209.160156 117.21875 207.980469 119.328125 C 206.800781 121.441406 206.207031 123.890625 206.296875 126.484375 Z M 206.53125 134.351562 " fill-opacity="1" fill-rule="nonzero"/><g clip-path="url(#6a4561eba6)"><path fill="#584910" d="M 218.246094 136.570312 L 215.304688 138.265625 L 216.445312 138.964844 C 217.25 139.460938 218.195312 139.484375 219.011719 139.003906 L 219.492188 138.734375 L 223.160156 136.621094 C 224.960938 135.582031 226.90625 135.050781 228.808594 135.066406 C 230.730469 135.066406 232.660156 135.597656 234.460938 136.644531 L 240.476562 140.144531 L 231.492188 145.332031 C 229.640625 146.40625 227.644531 146.925781 225.671875 146.886719 C 223.703125 146.859375 221.71875 146.277344 219.917969 145.148438 L 213.21875 140.988281 C 212.414062 140.484375 211.46875 140.46875 210.652344 140.949219 L 200.8125 146.625 L 201.953125 147.328125 C 202.757812 147.820312 203.703125 147.84375 204.519531 147.367188 L 211.664062 143.242188 L 218.351562 147.390625 C 220.554688 148.765625 222.976562 149.464844 225.402344 149.503906 C 227.824219 149.542969 230.507812 148.777344 232.75 147.46875 L 243.597656 141.207031 L 246.851562 139.328125 L 244.984375 138.242188 L 237.105469 133.652344 C 234.929688 132.382812 232.570312 131.746094 230.195312 131.734375 C 227.839844 131.734375 224.078125 133.160156 221.890625 134.429688 Z M 218.246094 136.570312 " fill-opacity="1" fill-rule="nonzero"/></g><g fill="#584910" fill-opacity="1"><g transform="translate(48.341693, 263.983533)"><g><path d="M 2.265625 -0.3125 C 2.804688 -0.3125 3.269531 -0.5 3.65625 -0.875 C 4.039062 -1.257812 4.238281 -1.722656 4.25 -2.265625 L 4.25 -19.671875 C 4.195312 -20.171875 3.984375 -20.585938 3.609375 -20.921875 C 3.234375 -21.265625 2.785156 -21.4375 2.265625 -21.4375 L 1.890625 -21.4375 L 1.859375 -21.75 L 10.96875 -21.75 C 11.613281 -21.75 12.3125 -21.8125 13.0625 -21.9375 C 13.820312 -22.0625 14.359375 -22.1875 14.671875 -22.3125 L 14.671875 -18.390625 L 14.359375 -18.390625 L 14.359375 -18.953125 C 14.359375 -19.453125 14.1875 -19.878906 13.84375 -20.234375 C 13.5 -20.585938 13.09375 -20.773438 12.625 -20.796875 L 6.28125 -20.796875 L 6.28125 -11.1875 L 11.53125 -11.1875 C 11.945312 -11.207031 12.296875 -11.363281 12.578125 -11.65625 C 12.867188 -11.945312 13.015625 -12.304688 13.015625 -12.734375 L 13.015625 -13.171875 L 13.328125 -13.171875 L 13.328125 -8.265625 L 13.015625 -8.265625 L 13.015625 -8.734375 C 13.015625 -9.148438 12.875 -9.5 12.59375 -9.78125 C 12.320312 -10.070312 11.976562 -10.226562 11.5625 -10.25 L 6.28125 -10.25 L 6.28125 -0.96875 L 10.71875 -0.96875 C 12.25 -0.96875 13.421875 -1.304688 14.234375 -1.984375 C 15.046875 -2.671875 15.71875 -3.6875 16.25 -5.03125 L 16.5625 -5.03125 L 14.765625 0 L 1.859375 0 L 1.859375 -0.3125 Z M 2.265625 -0.3125 "/></g></g></g><g fill="#584910" fill-opacity="1"><g transform="translate(67.820726, 263.983533)"><g><path d="M 27.96875 -0.3125 L 28.46875 -0.3125 L 28.46875 0 L 21.71875 0 L 21.71875 -0.28125 L 22.1875 -0.28125 C 22.539062 -0.28125 22.84375 -0.421875 23.09375 -0.703125 C 23.34375 -0.984375 23.445312 -1.285156 23.40625 -1.609375 L 22 -17.25 L 15.484375 -2.734375 C 14.898438 -1.472656 14.546875 -0.414062 14.421875 0.4375 L 14.109375 0.4375 L 6.15625 -16.8125 L 4.8125 -1.609375 C 4.769531 -1.285156 4.875 -0.984375 5.125 -0.703125 C 5.375 -0.421875 5.664062 -0.28125 6 -0.28125 L 6.5 -0.28125 L 6.5 0 L 0.46875 0 L 0.46875 -0.3125 L 0.96875 -0.3125 C 1.539062 -0.3125 2.039062 -0.488281 2.46875 -0.84375 C 2.894531 -1.195312 3.148438 -1.671875 3.234375 -2.265625 L 5.5625 -22.1875 L 5.875 -22.1875 L 14.546875 -3.453125 L 23.03125 -22.1875 L 23.3125 -22.1875 L 25.703125 -2.265625 C 25.804688 -1.441406 26.21875 -0.863281 26.9375 -0.53125 C 27.25 -0.382812 27.59375 -0.3125 27.96875 -0.3125 Z M 27.96875 -0.3125 "/></g></g></g><g fill="#584910" fill-opacity="1"><g transform="translate(98.297267, 263.983533)"><g><path d="M 2.265625 -0.3125 C 2.804688 -0.3125 3.269531 -0.5 3.65625 -0.875 C 4.039062 -1.257812 4.238281 -1.722656 4.25 -2.265625 L 4.25 -19.671875 C 4.195312 -20.171875 3.984375 -20.585938 3.609375 -20.921875 C 3.234375 -21.265625 2.785156 -21.4375 2.265625 -21.4375 L 1.890625 -21.4375 L 1.859375 -21.75 L 10.96875 -21.75 C 11.613281 -21.75 12.3125 -21.8125 13.0625 -21.9375 C 13.820312 -22.0625 14.359375 -22.1875 14.671875 -22.3125 L 14.671875 -18.390625 L 14.359375 -18.390625 L 14.359375 -18.953125 C 14.359375 -19.453125 14.1875 -19.878906 13.84375 -20.234375 C 13.5 -20.585938 13.09375 -20.773438 12.625 -20.796875 L 6.28125 -20.796875 L 6.28125 -11.1875 L 11.53125 -11.1875 C 11.945312 -11.207031 12.296875 -11.363281 12.578125 -11.65625 C 12.867188 -11.945312 13.015625 -12.304688 13.015625 -12.734375 L 13.015625 -13.171875 L 13.328125 -13.171875 L 13.328125 -8.265625 L 13.015625 -8.265625 L 13.015625 -8.734375 C 13.015625 -9.148438 12.875 -9.5 12.59375 -9.78125 C 12.320312 -10.070312 11.976562 -10.226562 11.5625 -10.25 L 6.28125 -10.25 L 6.28125 -0.96875 L 10.71875 -0.96875 C 12.25 -0.96875 13.421875 -1.304688 14.234375 -1.984375 C 15.046875 -2.671875 15.71875 -3.6875 16.25 -5.03125 L 16.5625 -5.03125 L 14.765625 0 L 1.859375 0 L 1.859375 -0.3125 Z M 2.265625 -0.3125 "/></g></g></g><g fill="#584910" fill-opacity="1"><g transform="translate(117.7763, 263.983533)"><g><path d="M 22.84375 -21.4375 L 22.34375 -21.4375 C 21.90625 -21.4375 21.523438 -21.296875 21.203125 -21.015625 C 20.890625 -20.742188 20.722656 -20.398438 20.703125 -19.984375 L 20.703125 -7.671875 C 20.703125 -5.253906 19.929688 -3.296875 18.390625 -1.796875 C 16.859375 -0.304688 14.816406 0.4375 12.265625 0.4375 C 9.722656 0.4375 7.660156 -0.300781 6.078125 -1.78125 C 4.492188 -3.269531 3.703125 -5.222656 3.703125 -7.640625 L 3.703125 -19.890625 C 3.703125 -20.515625 3.429688 -20.96875 2.890625 -21.25 C 2.640625 -21.375 2.359375 -21.4375 2.046875 -21.4375 L 1.546875 -21.4375 L 1.546875 -21.75 L 7.859375 -21.75 L 7.859375 -21.4375 L 7.359375 -21.4375 C 6.910156 -21.4375 6.53125 -21.296875 6.21875 -21.015625 C 5.90625 -20.742188 5.738281 -20.390625 5.71875 -19.953125 L 5.71875 -8.078125 C 5.71875 -5.816406 6.320312 -3.992188 7.53125 -2.609375 C 8.75 -1.222656 10.375 -0.53125 12.40625 -0.53125 C 14.4375 -0.53125 16.082031 -1.1875 17.34375 -2.5 C 18.601562 -3.8125 19.234375 -5.535156 19.234375 -7.671875 L 19.234375 -19.953125 C 19.210938 -20.390625 19.046875 -20.742188 18.734375 -21.015625 C 18.429688 -21.296875 18.050781 -21.4375 17.59375 -21.4375 L 17.09375 -21.4375 L 17.09375 -21.75 L 22.84375 -21.75 Z M 22.84375 -21.4375 "/></g></g></g><g fill="#584910" fill-opacity="1"><g transform="translate(143.717148, 263.983533)"><g><path d="M 8.265625 -20.796875 L 6.28125 -20.796875 L 6.28125 -2.265625 C 6.28125 -1.722656 6.46875 -1.257812 6.84375 -0.875 C 7.226562 -0.5 7.703125 -0.3125 8.265625 -0.3125 L 8.640625 -0.3125 L 8.671875 0 L 1.859375 0 L 1.859375 -0.3125 L 2.265625 -0.3125 C 2.804688 -0.3125 3.269531 -0.492188 3.65625 -0.859375 C 4.039062 -1.234375 4.238281 -1.691406 4.25 -2.234375 L 4.25 -19.484375 C 4.238281 -20.023438 4.039062 -20.484375 3.65625 -20.859375 C 3.269531 -21.242188 2.804688 -21.4375 2.265625 -21.4375 L 1.859375 -21.4375 L 1.859375 -21.75 L 10.25 -21.75 C 12.132812 -21.75 13.613281 -21.222656 14.6875 -20.171875 C 15.769531 -19.128906 16.3125 -17.773438 16.3125 -16.109375 C 16.3125 -14.441406 15.796875 -13 14.765625 -11.78125 C 13.742188 -10.570312 12.5 -9.96875 11.03125 -9.96875 C 11.34375 -9.832031 11.707031 -9.550781 12.125 -9.125 C 12.550781 -8.695312 12.929688 -8.253906 13.265625 -7.796875 C 15.046875 -5.253906 16.207031 -3.6875 16.75 -3.09375 C 17.289062 -2.5 17.675781 -2.09375 17.90625 -1.875 C 18.132812 -1.65625 18.378906 -1.441406 18.640625 -1.234375 C 18.910156 -1.035156 19.179688 -0.875 19.453125 -0.75 C 20.054688 -0.457031 20.695312 -0.3125 21.375 -0.3125 L 21.375 0 L 19.671875 0 C 18.785156 0 17.957031 -0.160156 17.1875 -0.484375 C 16.414062 -0.804688 15.835938 -1.132812 15.453125 -1.46875 C 15.078125 -1.8125 14.75 -2.144531 14.46875 -2.46875 C 14.1875 -2.789062 13.410156 -3.863281 12.140625 -5.6875 C 10.878906 -7.507812 10.144531 -8.550781 9.9375 -8.8125 C 9.738281 -9.070312 9.523438 -9.328125 9.296875 -9.578125 C 8.628906 -10.273438 7.960938 -10.625 7.296875 -10.625 L 7.296875 -10.9375 C 7.460938 -10.914062 7.679688 -10.90625 7.953125 -10.90625 C 8.222656 -10.90625 8.554688 -10.914062 8.953125 -10.9375 C 11.515625 -11 13.128906 -12.078125 13.796875 -14.171875 C 13.921875 -14.585938 13.984375 -14.972656 13.984375 -15.328125 C 13.984375 -15.691406 13.984375 -15.925781 13.984375 -16.03125 C 13.941406 -17.425781 13.578125 -18.546875 12.890625 -19.390625 C 12.210938 -20.242188 11.289062 -20.703125 10.125 -20.765625 C 9.632812 -20.785156 9.015625 -20.796875 8.265625 -20.796875 Z M 8.265625 -20.796875 "/></g></g></g><g fill="#584910" fill-opacity="1"><g transform="translate(166.302817, 263.983533)"><g><path d="M 2.265625 -0.3125 C 2.804688 -0.3125 3.269531 -0.5 3.65625 -0.875 C 4.039062 -1.257812 4.238281 -1.722656 4.25 -2.265625 L 4.25 -19.671875 C 4.195312 -20.171875 3.984375 -20.585938 3.609375 -20.921875 C 3.234375 -21.265625 2.785156 -21.4375 2.265625 -21.4375 L 1.890625 -21.4375 L 1.859375 -21.75 L 10.96875 -21.75 C 11.613281 -21.75 12.3125 -21.8125 13.0625 -21.9375 C 13.820312 -22.0625 14.359375 -22.1875 14.671875 -22.3125 L 14.671875 -18.390625 L 14.359375 -18.390625 L 14.359375 -18.953125 C 14.359375 -19.453125 14.1875 -19.878906 13.84375 -20.234375 C 13.5 -20.585938 13.09375 -20.773438 12.625 -20.796875 L 6.28125 -20.796875 L 6.28125 -11.1875 L 11.53125 -11.1875 C 11.945312 -11.207031 12.296875 -11.363281 12.578125 -11.65625 C 12.867188 -11.945312 13.015625 -12.304688 13.015625 -12.734375 L 13.015625 -13.171875 L 13.328125 -13.171875 L 13.328125 -8.265625 L 13.015625 -8.265625 L 13.015625 -8.734375 C 13.015625 -9.148438 12.875 -9.5 12.59375 -9.78125 C 12.320312 -10.070312 11.976562 -10.226562 11.5625 -10.25 L 6.28125 -10.25 L 6.28125 -0.96875 L 10.71875 -0.96875 C 12.25 -0.96875 13.421875 -1.304688 14.234375 -1.984375 C 15.046875 -2.671875 15.71875 -3.6875 16.25 -5.03125 L 16.5625 -5.03125 L 14.765625 0 L 1.859375 0 L 1.859375 -0.3125 Z M 2.265625 -0.3125 "/></g></g></g><g fill="#584910" fill-opacity="1"><g transform="translate(185.78185, 263.983533)"><g/></g></g><g fill="#584910" fill-opacity="1"><g transform="translate(195.102158, 263.983533)"><g><path d="M 2.265625 -0.3125 C 2.804688 -0.3125 3.269531 -0.5 3.65625 -0.875 C 4.039062 -1.257812 4.238281 -1.722656 4.25 -2.265625 L 4.25 -19.515625 C 4.238281 -20.054688 4.039062 -20.507812 3.65625 -20.875 C 3.269531 -21.25 2.804688 -21.4375 2.265625 -21.4375 L 1.859375 -21.4375 L 1.859375 -21.75 L 8.671875 -21.75 L 8.671875 -21.4375 L 8.265625 -21.4375 C 7.722656 -21.4375 7.257812 -21.25 6.875 -20.875 C 6.5 -20.507812 6.300781 -20.054688 6.28125 -19.515625 L 6.28125 -2.265625 C 6.28125 -1.722656 6.472656 -1.257812 6.859375 -0.875 C 7.253906 -0.5 7.722656 -0.3125 8.265625 -0.3125 L 8.671875 -0.3125 L 8.671875 0 L 1.859375 0 L 1.859375 -0.3125 Z M 2.265625 -0.3125 "/></g></g></g><g fill="#584910" fill-opacity="1"><g transform="translate(207.15631, 263.983533)"><g><path d="M 24.171875 -21.4375 C 23.660156 -21.4375 23.21875 -21.253906 22.84375 -20.890625 C 22.46875 -20.535156 22.269531 -20.097656 22.25 -19.578125 L 22.25 -3.546875 C 22.25 -2.335938 22.320312 -1.195312 22.46875 -0.125 L 22.53125 0.4375 L 22.25 0.4375 L 5.3125 -17.65625 L 5.3125 -2.171875 C 5.332031 -1.453125 5.65625 -0.914062 6.28125 -0.5625 C 6.570312 -0.394531 6.878906 -0.3125 7.203125 -0.3125 L 7.796875 -0.3125 L 7.796875 0 L 1.40625 0 L 1.40625 -0.3125 L 1.984375 -0.3125 C 2.503906 -0.3125 2.953125 -0.492188 3.328125 -0.859375 C 3.703125 -1.222656 3.890625 -1.671875 3.890625 -2.203125 L 3.890625 -18.34375 C 3.890625 -19.601562 3.816406 -20.726562 3.671875 -21.71875 L 3.609375 -22.21875 L 3.921875 -22.21875 L 20.859375 -4.140625 L 20.859375 -19.546875 C 20.835938 -20.085938 20.640625 -20.535156 20.265625 -20.890625 C 19.890625 -21.253906 19.441406 -21.4375 18.921875 -21.4375 L 18.34375 -21.4375 L 18.34375 -21.75 L 24.734375 -21.75 L 24.734375 -21.4375 Z M 24.171875 -21.4375 "/></g></g></g><g fill="#584910" fill-opacity="1"><g transform="translate(234.836877, 263.983533)"><g><path d="M 1.890625 -1.28125 C 1.828125 -1.5625 1.796875 -2.117188 1.796875 -2.953125 C 1.796875 -3.785156 1.953125 -4.664062 2.265625 -5.59375 L 2.546875 -5.59375 C 2.523438 -5.363281 2.515625 -5.132812 2.515625 -4.90625 C 2.515625 -3.644531 2.894531 -2.59375 3.65625 -1.75 C 4.425781 -0.914062 5.445312 -0.5 6.71875 -0.5 C 8.019531 -0.5 9.085938 -0.890625 9.921875 -1.671875 C 10.765625 -2.460938 11.1875 -3.453125 11.1875 -4.640625 C 11.1875 -5.835938 10.78125 -6.804688 9.96875 -7.546875 L 4.015625 -13.078125 C 2.890625 -14.117188 2.328125 -15.375 2.328125 -16.84375 C 2.328125 -18.3125 2.816406 -19.566406 3.796875 -20.609375 C 4.785156 -21.660156 6.117188 -22.1875 7.796875 -22.1875 C 8.585938 -22.1875 9.476562 -22.082031 10.46875 -21.875 L 11.6875 -21.875 L 11.6875 -18.0625 L 11.40625 -18.0625 C 11.40625 -19.03125 11.066406 -19.800781 10.390625 -20.375 C 9.722656 -20.957031 8.859375 -21.25 7.796875 -21.25 C 6.742188 -21.25 5.859375 -20.894531 5.140625 -20.1875 C 4.429688 -19.488281 4.078125 -18.609375 4.078125 -17.546875 C 4.078125 -16.492188 4.488281 -15.585938 5.3125 -14.828125 L 11.4375 -9.171875 C 12.46875 -8.210938 12.984375 -6.90625 12.984375 -5.25 C 12.984375 -3.59375 12.457031 -2.226562 11.40625 -1.15625 C 10.351562 -0.09375 8.941406 0.4375 7.171875 0.4375 C 6.265625 0.4375 5.296875 0.296875 4.265625 0.015625 C 3.242188 -0.265625 2.453125 -0.695312 1.890625 -1.28125 Z M 1.890625 -1.28125 "/></g></g></g><g fill="#584910" fill-opacity="1"><g transform="translate(251.147145, 263.983533)"><g><path d="M 5.265625 -19.0625 C 7.328125 -21.144531 10.015625 -22.1875 13.328125 -22.1875 C 16.648438 -22.1875 19.34375 -21.144531 21.40625 -19.0625 C 23.476562 -16.976562 24.515625 -14.25 24.515625 -10.875 C 24.515625 -7.5 23.476562 -4.769531 21.40625 -2.6875 C 19.34375 -0.601562 16.648438 0.4375 13.328125 0.4375 C 10.015625 0.4375 7.328125 -0.601562 5.265625 -2.6875 C 3.203125 -4.769531 2.171875 -7.5 2.171875 -10.875 C 2.171875 -14.25 3.203125 -16.976562 5.265625 -19.0625 Z M 6.96875 -3.359375 C 8.582031 -1.453125 10.707031 -0.5 13.34375 -0.5 C 15.988281 -0.5 18.113281 -1.453125 19.71875 -3.359375 C 21.320312 -5.265625 22.125 -7.769531 22.125 -10.875 C 22.125 -12.925781 21.757812 -14.738281 21.03125 -16.3125 C 20.3125 -17.882812 19.28125 -19.097656 17.9375 -19.953125 C 16.601562 -20.816406 15.066406 -21.25 13.328125 -21.25 C 10.703125 -21.25 8.582031 -20.296875 6.96875 -18.390625 C 5.363281 -16.484375 4.5625 -13.976562 4.5625 -10.875 C 4.5625 -7.769531 5.363281 -5.265625 6.96875 -3.359375 Z M 6.96875 -3.359375 "/></g></g></g><g fill="#584910" fill-opacity="1"><g transform="translate(278.7345, 263.983533)"><g><path d="M 2.265625 -0.3125 C 2.804688 -0.3125 3.269531 -0.5 3.65625 -0.875 C 4.039062 -1.257812 4.238281 -1.722656 4.25 -2.265625 L 4.25 -19.484375 C 4.238281 -20.023438 4.039062 -20.484375 3.65625 -20.859375 C 3.269531 -21.242188 2.804688 -21.4375 2.265625 -21.4375 L 1.859375 -21.4375 L 1.859375 -21.75 L 8.671875 -21.75 L 8.671875 -21.4375 L 8.265625 -21.4375 C 7.515625 -21.4375 6.945312 -21.117188 6.5625 -20.484375 C 6.375 -20.171875 6.28125 -19.835938 6.28125 -19.484375 L 6.28125 -0.96875 L 10.71875 -0.96875 C 12.25 -0.96875 13.421875 -1.304688 14.234375 -1.984375 C 15.046875 -2.671875 15.71875 -3.6875 16.25 -5.03125 L 16.5625 -5.03125 L 14.765625 0 L 1.859375 0 L 1.859375 -0.3125 Z M 2.265625 -0.3125 "/></g></g></g><g fill="#584910" fill-opacity="1"><g transform="translate(297.74753, 263.983533)"><g><path d="M 2.265625 -0.3125 C 2.804688 -0.3125 3.269531 -0.5 3.65625 -0.875 C 4.039062 -1.257812 4.238281 -1.722656 4.25 -2.265625 L 4.25 -19.515625 C 4.238281 -20.054688 4.039062 -20.507812 3.65625 -20.875 C 3.269531 -21.25 2.804688 -21.4375 2.265625 -21.4375 L 1.859375 -21.4375 L 1.859375 -21.75 L 8.671875 -21.75 L 8.671875 -21.4375 L 8.265625 -21.4375 C 7.722656 -21.4375 7.257812 -21.25 6.875 -20.875 C 6.5 -20.507812 6.300781 -20.054688 6.28125 -19.515625 L 6.28125 -2.265625 C 6.28125 -1.722656 6.472656 -1.257812 6.859375 -0.875 C 7.253906 -0.5 7.722656 -0.3125 8.265625 -0.3125 L 8.671875 -0.3125 L 8.671875 0 L 1.859375 0 L 1.859375 -0.3125 Z M 2.265625 -0.3125 "/></g></g></g><g fill="#584910" fill-opacity="1"><g transform="translate(309.801682, 263.983533)"><g><path d="M 18.3125 -18.984375 C 18.3125 -19.484375 18.132812 -19.914062 17.78125 -20.28125 C 17.425781 -20.644531 17.007812 -20.835938 16.53125 -20.859375 L 10.625 -20.859375 L 10.625 -2.234375 C 10.644531 -1.691406 10.847656 -1.234375 11.234375 -0.859375 C 11.617188 -0.492188 12.082031 -0.3125 12.625 -0.3125 L 13.015625 -0.3125 L 13.015625 0 L 6.21875 0 L 6.21875 -0.3125 L 6.625 -0.3125 C 7.15625 -0.3125 7.613281 -0.492188 8 -0.859375 C 8.382812 -1.234375 8.585938 -1.679688 8.609375 -2.203125 L 8.609375 -20.859375 L 2.703125 -20.859375 C 2.203125 -20.835938 1.78125 -20.644531 1.4375 -20.28125 C 1.101562 -19.914062 0.9375 -19.484375 0.9375 -18.984375 L 0.9375 -18.453125 L 0.625 -18.421875 L 0.625 -22.34375 C 0.9375 -22.21875 1.472656 -22.09375 2.234375 -21.96875 C 3.003906 -21.84375 3.707031 -21.78125 4.34375 -21.78125 L 14.859375 -21.78125 C 15.867188 -21.78125 16.707031 -21.859375 17.375 -22.015625 C 18.050781 -22.171875 18.460938 -22.28125 18.609375 -22.34375 L 18.609375 -18.421875 L 18.3125 -18.453125 Z M 18.3125 -18.984375 "/></g></g></g><g fill="#584910" fill-opacity="1"><g transform="translate(331.466906, 267.733504)"><g><path d="M 2.921875 -0.40625 C 3.609375 -0.40625 4.195312 -0.648438 4.6875 -1.140625 C 5.1875 -1.628906 5.453125 -2.222656 5.484375 -2.921875 L 5.484375 -25.3125 C 5.398438 -25.957031 5.117188 -26.5 4.640625 -26.9375 C 4.160156 -27.375 3.585938 -27.59375 2.921875 -27.59375 L 2.4375 -27.59375 L 2.40625 -28 L 14.125 -28 C 14.945312 -28 15.84375 -28.078125 16.8125 -28.234375 C 17.789062 -28.398438 18.476562 -28.5625 18.875 -28.71875 L 18.875 -23.6875 L 18.484375 -23.6875 L 18.484375 -24.40625 C 18.484375 -25.039062 18.257812 -25.582031 17.8125 -26.03125 C 17.375 -26.488281 16.847656 -26.734375 16.234375 -26.765625 L 8.078125 -26.765625 L 8.078125 -14.40625 L 14.84375 -14.40625 C 15.375 -14.425781 15.828125 -14.625 16.203125 -15 C 16.578125 -15.375 16.765625 -15.84375 16.765625 -16.40625 L 16.765625 -16.953125 L 17.15625 -16.953125 L 17.15625 -10.640625 L 16.765625 -10.640625 L 16.765625 -11.234375 C 16.765625 -11.773438 16.582031 -12.226562 16.21875 -12.59375 C 15.863281 -12.96875 15.414062 -13.171875 14.875 -13.203125 L 8.078125 -13.203125 L 8.078125 -1.234375 L 13.796875 -1.234375 C 15.773438 -1.234375 17.28125 -1.671875 18.3125 -2.546875 C 19.351562 -3.429688 20.222656 -4.742188 20.921875 -6.484375 L 21.3125 -6.484375 L 19 0 L 2.40625 0 L 2.40625 -0.40625 Z M 2.921875 -0.40625 "/></g></g></g><g fill="#584910" fill-opacity="1"><g transform="translate(13.905102, 267.733504)"><g><path d="M 15.953125 -28 C 20.222656 -28 23.679688 -26.710938 26.328125 -24.140625 C 28.984375 -21.566406 30.3125 -18.1875 30.3125 -14 C 30.3125 -9.8125 28.984375 -6.429688 26.328125 -3.859375 C 23.679688 -1.285156 20.222656 0 15.953125 0 L 2.40625 0 L 2.40625 -0.40625 L 2.921875 -0.40625 C 3.609375 -0.40625 4.195312 -0.648438 4.6875 -1.140625 C 5.1875 -1.628906 5.453125 -2.222656 5.484375 -2.921875 L 5.484375 -25.3125 C 5.484375 -25.957031 5.222656 -26.5 4.703125 -26.9375 C 4.179688 -27.375 3.585938 -27.59375 2.921875 -27.59375 L 2.4375 -27.59375 L 2.40625 -28 Z M 8.078125 -26.796875 L 8.078125 -1.203125 L 15.953125 -1.203125 C 18.191406 -1.203125 20.171875 -1.734375 21.890625 -2.796875 C 23.617188 -3.867188 24.953125 -5.367188 25.890625 -7.296875 C 26.835938 -9.234375 27.3125 -11.46875 27.3125 -14 C 27.3125 -17.84375 26.265625 -20.9375 24.171875 -23.28125 C 22.085938 -25.625 19.347656 -26.796875 15.953125 -26.796875 Z M 8.078125 -26.796875 "/></g></g></g></svg>